<?xml version="1.0" standalone="no"?>
<!DOCTYPE svg PUBLIC "-//W3C//DTD SVG 20010904//EN"
 "http://www.w3.org/TR/2001/REC-SVG-20010904/DTD/svg10.dtd">
<svg version="1.0" xmlns="http://www.w3.org/2000/svg"
 width="360.000000pt" height="360.000000pt" viewBox="0 0 360.000000 360.000000"
 preserveAspectRatio="xMidYMid meet">

<g transform="translate(0.000000,360.000000) scale(0.100000,-0.100000)"
fill="#000000" stroke="none">
<path d="M1943 2098 c-5 -7 -42 -68 -81 -134 -132 -225 -229 -334 -299 -334
-105 0 -188 101 -169 204 14 76 97 146 173 146 18 0 33 2 33 4 0 2 -10 30 -22
61 l-22 57 -40 -7 c-135 -21 -246 -152 -246 -289 0 -160 135 -296 293 -296
139 1 252 115 427 435 45 81 80 148 78 150 -2 1 -28 6 -59 9 -41 5 -58 3 -66
-6z"/>
<path d="M1660 2084 c0 -9 65 -124 70 -124 7 0 70 109 70 121 0 5 -31 9 -70 9
-38 0 -70 -3 -70 -6z"/>
<path d="M2166 2058 c-8 -13 -67 -113 -131 -223 l-116 -200 32 -67 c18 -38 35
-68 38 -68 5 0 199 328 309 522 l33 58 -75 0 c-67 0 -77 -2 -90 -22z"/>
</g>
</svg>
